# Tiled2Unity generated file. Do not modify by hand.
# Wavefront file for 'Novice_village_mesh_0012.obj'

# Vertices (Count = 176)
v -976 -384 0
v -992 -384 0
v -992 -368 0
v -976 -368 0
v -960 -384 0
v -976 -384 0
v -976 -368 0
v -960 -368 0
v -992 -400 0
v -1008 -400 0
v -1008 -384 0
v -992 -384 0
v -976 -400 0
v -992 -400 0
v -992 -384 0
v -976 -384 0
v -960 -400 0
v -976 -400 0
v -976 -384 0
v -960 -384 0
v -944 -400 0
v -960 -400 0
v -960 -384 0
v -944 -384 0
v -1040 -416 0
v -1056 -416 0
v -1056 -400 0
v -1040 -400 0
v -1024 -416 0
v -1040 -416 0
v -1040 -400 0
v -1024 -400 0
v -1008 -416 0
v -1024 -416 0
v -1024 -400 0
v -1008 -400 0
v -992 -416 0
v -1008 -416 0
v -1008 -400 0
v -992 -400 0
v -976 -416 0
v -992 -416 0
v -992 -400 0
v -976 -400 0
v -960 -416 0
v -976 -416 0
v -976 -400 0
v -960 -400 0
v -944 -416 0
v -960 -416 0
v -960 -400 0
v -944 -400 0
v -928 -416 0
v -944 -416 0
v -944 -400 0
v -928 -400 0
v -912 -416 0
v -928 -416 0
v -928 -400 0
v -912 -400 0
v -896 -416 0
v -912 -416 0
v -912 -400 0
v -896 -400 0
v -1040 -432 0
v -1056 -432 0
v -1056 -416 0
v -1040 -416 0
v -1024 -432 0
v -1040 -432 0
v -1040 -416 0
v -1024 -416 0
v -1008 -432 0
v -1024 -432 0
v -1024 -416 0
v -1008 -416 0
v -992 -432 0
v -1008 -432 0
v -1008 -416 0
v -992 -416 0
v -976 -432 0
v -992 -432 0
v -992 -416 0
v -976 -416 0
v -960 -432 0
v -976 -432 0
v -976 -416 0
v -960 -416 0
v -944 -432 0
v -960 -432 0
v -960 -416 0
v -944 -416 0
v -928 -432 0
v -944 -432 0
v -944 -416 0
v -928 -416 0
v -912 -432 0
v -928 -432 0
v -928 -416 0
v -912 -416 0
v -896 -432 0
v -912 -432 0
v -912 -416 0
v -896 -416 0
v -992 -448 0
v -1008 -448 0
v -1008 -432 0
v -992 -432 0
v -976 -448 0
v -992 -448 0
v -992 -432 0
v -976 -432 0
v -960 -448 0
v -976 -448 0
v -976 -432 0
v -960 -432 0
v -944 -448 0
v -960 -448 0
v -960 -432 0
v -944 -432 0
v -384 -496 0
v -400 -496 0
v -400 -480 0
v -384 -480 0
v -368 -496 0
v -384 -496 0
v -384 -480 0
v -368 -480 0
v -384 -672 0
v -400 -672 0
v -400 -656 0
v -384 -656 0
v -368 -672 0
v -384 -672 0
v -384 -656 0
v -368 -656 0
v -656 -720 0
v -672 -720 0
v -672 -704 0
v -656 -704 0
v -640 -720 0
v -656 -720 0
v -656 -704 0
v -640 -704 0
v -624 -720 0
v -640 -720 0
v -640 -704 0
v -624 -704 0
v -608 -720 0
v -624 -720 0
v -624 -704 0
v -608 -704 0
v -592 -720 0
v -608 -720 0
v -608 -704 0
v -592 -704 0
v -448 -800 0
v -464 -800 0
v -464 -784 0
v -448 -784 0
v -432 -800 0
v -448 -800 0
v -448 -784 0
v -432 -784 0
v -416 -800 0
v -432 -800 0
v -432 -784 0
v -416 -784 0
v -400 -800 0
v -416 -800 0
v -416 -784 0
v -400 -784 0
v -384 -800 0
v -400 -800 0
v -400 -784 0
v -384 -784 0

# Texture cooridinates (Count = 56)
vt 0.2458678 0.2908745
vt 0.2623967 0.2908745
vt 0.2623967 0.3212928
vt 0.2458678 0.3212928
vt 0.3161157 0.2585551
vt 0.3326446 0.2585551
vt 0.3326446 0.2889734
vt 0.3161157 0.2889734
vt 0.3336777 0.2585551
vt 0.3502066 0.2585551
vt 0.3502066 0.2889734
vt 0.3336777 0.2889734
vt 0.2985537 0.2585551
vt 0.3150826 0.2585551
vt 0.3150826 0.2889734
vt 0.2985537 0.2889734
vt 0.3336777 0.2262357
vt 0.3502066 0.2262357
vt 0.3502066 0.256654
vt 0.3336777 0.256654
vt 0.3161157 0.2262357
vt 0.3326446 0.2262357
vt 0.3326446 0.256654
vt 0.3161157 0.256654
vt 0.2985537 0.2262357
vt 0.3150826 0.2262357
vt 0.3150826 0.256654
vt 0.2985537 0.256654
vt 0.2107438 0.7756654
vt 0.2272727 0.7756654
vt 0.2272727 0.8060837
vt 0.2107438 0.8060837
vt 0.1756198 0.8079848
vt 0.1921488 0.8079848
vt 0.1921488 0.838403
vt 0.1756198 0.838403
vt 0.2283058 0.7756654
vt 0.2448347 0.7756654
vt 0.2448347 0.8060837
vt 0.2283058 0.8060837
vt 0.1931818 0.8403042
vt 0.2097107 0.8403042
vt 0.2097107 0.8707224
vt 0.1931818 0.8707224
vt 0.2107438 0.8403042
vt 0.2272727 0.8403042
vt 0.2272727 0.8707224
vt 0.2107438 0.8707224
vt 0.2283058 0.8403042
vt 0.2448347 0.8403042
vt 0.2448347 0.8707224
vt 0.2283058 0.8707224
vt 0.2283058 0.8079848
vt 0.2448347 0.8079848
vt 0.2448347 0.838403
vt 0.2283058 0.838403

# Normal
vn 0 0 -1

# Mesh description
g Novice_village_mesh_0012

# Faces
f 1/1/1 2/2/1 3/3/1 4/4/1
f 5/2/1 6/1/1 7/4/1 8/3/1
f 9/1/1 10/2/1 11/3/1 12/4/1
f 13/5/1 14/6/1 15/7/1 16/8/1
f 17/5/1 18/6/1 19/7/1 20/8/1
f 21/2/1 22/1/1 23/4/1 24/3/1
f 25/9/1 26/10/1 27/11/1 28/12/1
f 29/5/1 30/6/1 31/7/1 32/8/1
f 33/13/1 34/14/1 35/15/1 36/16/1
f 37/9/1 38/10/1 39/11/1 40/12/1
f 41/5/1 42/6/1 43/7/1 44/8/1
f 45/5/1 46/6/1 47/7/1 48/8/1
f 49/13/1 50/14/1 51/15/1 52/16/1
f 53/9/1 54/10/1 55/11/1 56/12/1
f 57/5/1 58/6/1 59/7/1 60/8/1
f 61/13/1 62/14/1 63/15/1 64/16/1
f 65/17/1 66/18/1 67/19/1 68/20/1
f 69/21/1 70/22/1 71/23/1 72/24/1
f 73/25/1 74/26/1 75/27/1 76/28/1
f 77/9/1 78/10/1 79/11/1 80/12/1
f 81/5/1 82/6/1 83/7/1 84/8/1
f 85/5/1 86/6/1 87/7/1 88/8/1
f 89/13/1 90/14/1 91/15/1 92/16/1
f 93/17/1 94/18/1 95/19/1 96/20/1
f 97/21/1 98/22/1 99/23/1 100/24/1
f 101/25/1 102/26/1 103/27/1 104/28/1
f 105/17/1 106/18/1 107/19/1 108/20/1
f 109/21/1 110/22/1 111/23/1 112/24/1
f 113/21/1 114/22/1 115/23/1 116/24/1
f 117/25/1 118/26/1 119/27/1 120/28/1
f 121/29/1 122/30/1 123/31/1 124/32/1
f 125/33/1 126/34/1 127/35/1 128/36/1
f 129/37/1 130/38/1 131/39/1 132/40/1
f 133/33/1 134/34/1 135/35/1 136/36/1
f 137/37/1 138/38/1 139/39/1 140/40/1
f 141/41/1 142/42/1 143/43/1 144/44/1
f 145/45/1 146/46/1 147/47/1 148/48/1
f 149/49/1 150/50/1 151/51/1 152/52/1
f 153/33/1 154/34/1 155/35/1 156/36/1
f 157/29/1 158/30/1 159/31/1 160/32/1
f 161/45/1 162/46/1 163/47/1 164/48/1
f 165/41/1 166/42/1 167/43/1 168/44/1
f 169/49/1 170/50/1 171/51/1 172/52/1
f 173/53/1 174/54/1 175/55/1 176/56/1

