# Tiled2Unity generated file. Do not modify by hand.
# Wavefront file for 'Novice_village_mesh_0011.obj'

# Vertices (Count = 16)
v -544 -480 0
v -560 -480 0
v -560 -464 0
v -544 -464 0
v -528 -480 0
v -544 -480 0
v -544 -464 0
v -528 -464 0
v -544 -496 0
v -560 -496 0
v -560 -480 0
v -544 -480 0
v -528 -496 0
v -544 -496 0
v -544 -480 0
v -528 -480 0

# Texture cooridinates (Count = 16)
vt 0.9745223 0.8947368
vt 1 0.8947368
vt 1 0.928421
vt 0.9745223 0.928421
vt 0.9474522 0.8947368
vt 0.97293 0.8947368
vt 0.97293 0.928421
vt 0.9474522 0.928421
vt 0.9745223 0.8589474
vt 1 0.8589474
vt 1 0.8926316
vt 0.9745223 0.8926316
vt 0.9474522 0.8589474
vt 0.97293 0.8589474
vt 0.97293 0.8926316
vt 0.9474522 0.8926316

# Normal
vn 0 0 -1

# Mesh description
g Novice_village_mesh_0011

# Faces
f 1/1/1 2/2/1 3/3/1 4/4/1
f 5/5/1 6/6/1 7/7/1 8/8/1
f 9/9/1 10/10/1 11/11/1 12/12/1
f 13/13/1 14/14/1 15/15/1 16/16/1

