# Tiled2Unity generated file. Do not modify by hand.
# Wavefront file for 'Novice_village_mesh_0009.obj'

# Vertices (Count = 60)
v -832 -368 0
v -848 -368 0
v -848 -352 0
v -832 -352 0
v -816 -368 0
v -832 -368 0
v -832 -352 0
v -816 -352 0
v -800 -368 0
v -816 -368 0
v -816 -352 0
v -800 -352 0
v -784 -368 0
v -800 -368 0
v -800 -352 0
v -784 -352 0
v -768 -368 0
v -784 -368 0
v -784 -352 0
v -768 -352 0
v -1040 -448 0
v -1056 -448 0
v -1056 -432 0
v -1040 -432 0
v -1024 -448 0
v -1040 -448 0
v -1040 -432 0
v -1024 -432 0
v -1008 -448 0
v -1024 -448 0
v -1024 -432 0
v -1008 -432 0
v -928 -448 0
v -944 -448 0
v -944 -432 0
v -928 -432 0
v -912 -448 0
v -928 -448 0
v -928 -432 0
v -912 -432 0
v -896 -448 0
v -912 -448 0
v -912 -432 0
v -896 -432 0
v -736 -784 0
v -752 -784 0
v -752 -768 0
v -736 -768 0
v -336 -784 0
v -352 -784 0
v -352 -768 0
v -336 -768 0
v -736 -800 0
v -752 -800 0
v -752 -784 0
v -736 -784 0
v -336 -800 0
v -352 -800 0
v -352 -784 0
v -336 -784 0

# Texture cooridinates (Count = 28)
vt 0.3688017 0.6140684
vt 0.3853306 0.6140684
vt 0.3853306 0.6444867
vt 0.3688017 0.6444867
vt 0.3512397 0.6140684
vt 0.3677686 0.6140684
vt 0.3677686 0.6444867
vt 0.3512397 0.6444867
vt 0.3336777 0.6140684
vt 0.3502066 0.6140684
vt 0.3502066 0.6444867
vt 0.3336777 0.6444867
vt 0.4214876 0.6787072
vt 0.4380165 0.6787072
vt 0.4380165 0.7091255
vt 0.4214876 0.7091255
vt 0.4214876 0.6140684
vt 0.4380165 0.6140684
vt 0.4380165 0.6444867
vt 0.4214876 0.6444867
vt 0.2634298 0.6463878
vt 0.2799587 0.6463878
vt 0.2799587 0.6768061
vt 0.2634298 0.6768061
vt 0.2634298 0.6140684
vt 0.2799587 0.6140684
vt 0.2799587 0.6444867
vt 0.2634298 0.6444867

# Normal
vn 0 0 -1

# Mesh description
g Novice_village_mesh_0009

# Faces
f 1/1/1 2/2/1 3/3/1 4/4/1
f 5/5/1 6/6/1 7/7/1 8/8/1
f 9/5/1 10/6/1 11/7/1 12/8/1
f 13/5/1 14/6/1 15/7/1 16/8/1
f 17/9/1 18/10/1 19/11/1 20/12/1
f 21/13/1 22/14/1 23/15/1 24/16/1
f 25/17/1 26/18/1 27/19/1 28/20/1
f 29/13/1 30/14/1 31/15/1 32/16/1
f 33/17/1 34/18/1 35/19/1 36/20/1
f 37/17/1 38/18/1 39/19/1 40/20/1
f 41/17/1 42/18/1 43/19/1 44/20/1
f 45/21/1 46/22/1 47/23/1 48/24/1
f 49/21/1 50/22/1 51/23/1 52/24/1
f 53/25/1 54/26/1 55/27/1 56/28/1
f 57/25/1 58/26/1 59/27/1 60/28/1

