# Tiled2Unity generated file. Do not modify by hand.
# Wavefront file for 'Novice_village_mesh_0017.obj'

# Vertices (Count = 60)
v -768 -480 0
v -784 -480 0
v -784 -464 0
v -768 -464 0
v -768 -496 0
v -784 -496 0
v -784 -480 0
v -768 -480 0
v -768 -512 0
v -784 -512 0
v -784 -496 0
v -768 -496 0
v -576 -624 0
v -592 -624 0
v -592 -608 0
v -576 -608 0
v -576 -640 0
v -592 -640 0
v -592 -624 0
v -576 -624 0
v -576 -656 0
v -592 -656 0
v -592 -640 0
v -576 -640 0
v -496 -704 0
v -512 -704 0
v -512 -688 0
v -496 -688 0
v -496 -720 0
v -512 -720 0
v -512 -704 0
v -496 -704 0
v -496 -736 0
v -512 -736 0
v -512 -720 0
v -496 -720 0
v -576 -800 0
v -592 -800 0
v -592 -784 0
v -576 -784 0
v -496 -800 0
v -512 -800 0
v -512 -784 0
v -496 -784 0
v -576 -816 0
v -592 -816 0
v -592 -800 0
v -576 -800 0
v -496 -816 0
v -512 -816 0
v -512 -800 0
v -496 -800 0
v -576 -832 0
v -592 -832 0
v -592 -816 0
v -576 -816 0
v -496 -832 0
v -512 -832 0
v -512 -816 0
v -496 -816 0

# Texture cooridinates (Count = 8)
vt 0.1931818 0.8726236
vt 0.2097107 0.8726236
vt 0.2097107 0.9030418
vt 0.1931818 0.9030418
vt 0.1756198 0.8726236
vt 0.1921488 0.8726236
vt 0.1921488 0.9030418
vt 0.1756198 0.9030418

# Normal
vn 0 0 -1

# Mesh description
g Novice_village_mesh_0017

# Faces
f 1/1/1 2/2/1 3/3/1 4/4/1
f 5/1/1 6/2/1 7/3/1 8/4/1
f 9/1/1 10/2/1 11/3/1 12/4/1
f 13/1/1 14/2/1 15/3/1 16/4/1
f 17/1/1 18/2/1 19/3/1 20/4/1
f 21/1/1 22/2/1 23/3/1 24/4/1
f 25/5/1 26/6/1 27/7/1 28/8/1
f 29/5/1 30/6/1 31/7/1 32/8/1
f 33/5/1 34/6/1 35/7/1 36/8/1
f 37/1/1 38/2/1 39/3/1 40/4/1
f 41/5/1 42/6/1 43/7/1 44/8/1
f 45/1/1 46/2/1 47/3/1 48/4/1
f 49/5/1 50/6/1 51/7/1 52/8/1
f 53/1/1 54/2/1 55/3/1 56/4/1
f 57/5/1 58/6/1 59/7/1 60/8/1

